<svg xmlns="http://www.w3.org/2000/svg" width="390" height="844" viewBox="0 0 390 844" role="img" aria-label="Issue 499 acceptance state Image upload">
  <metadata id="provenance">{"classification":"synthetic","source":"deterministic-generator","generator":"docs/screenshots/issue-499/generate-stills.ts","sourceRevision":"3a5c11045eeb9b7731343f7509c5161c7339c59f","sourceCaptureSha256":"d2d3f18aa6b45554b1818857edcc3dbc3877b65fac393cdbc812d207cbef1910"}</metadata>
  <rect x="0" y="0" width="390" height="844" fill="#f3f4f6"/>
  <text x="16" y="26" font-family="ui-sans-serif, system-ui, sans-serif" font-size="16" font-weight="600" fill="#1f2937">Issue 499 — Image upload</text>
  <text x="16" y="44" font-family="ui-monospace, monospace" font-size="11" font-weight="500" fill="#8c95a3">390×844 · synthetic fixture · rev 3a5c11045eeb</text>
  <rect x="10" y="506" width="370" height="324" fill="#dee2e9" rx="12"/>
  <rect x="12" y="508" width="366" height="320" fill="#ffffff" rx="10"/>
  <text x="28" y="532" font-family="ui-sans-serif, system-ui, sans-serif" font-size="12" font-weight="500" fill="#8c95a3">…transcript…</text>
  <rect x="12" y="636" width="366" height="2" fill="#dee2e9"/>
  <rect x="28" y="650" width="48" height="48" fill="#f68a8a" rx="6"/>
  <rect x="56" y="654" width="16" height="16" fill="#ffffff" rx="8"/>
  <text x="60" y="666" font-family="ui-sans-serif, system-ui, sans-serif" font-size="12" font-weight="700" fill="#1f2937">×</text>
  <rect x="26" y="708" width="338" height="48" fill="#dee2e9" rx="10"/>
  <rect x="28" y="710" width="334" height="44" fill="#eef1f5" rx="9"/>
  <text x="42" y="737" font-family="ui-sans-serif, system-ui, sans-serif" font-size="12" font-weight="500" fill="#8c95a3">message the agent…</text>
  <rect x="310" y="716" width="32" height="32" fill="#6d5ef6" rx="8"/>
  <path d="M 321 724 L 333 732 L 321 740 Z" fill="#ffffff"/>
  <rect x="288" y="724" width="10" height="16" fill="#8c95a3" rx="5"/>
  <rect x="264" y="726" width="14" height="3" fill="#8c95a3"/>
  <rect x="264" y="734" width="14" height="3" fill="#8c95a3"/>
  <path d="M 36 768 L 30 778 L 35 778 L 29 788 L 41 775 L 36 775 L 40 768 Z" fill="#6d5ef6"/>
  <text x="50" y="782" font-family="ui-sans-serif, system-ui, sans-serif" font-size="13" font-weight="700" fill="#1f2937">5.6-Sol · High ⌄</text>
  <text x="28" y="818" font-family="ui-monospace, monospace" font-size="10" font-weight="500" fill="#8c95a3">synthetic · rev 3a5c11045eeb</text>
</svg>
