<svg xmlns="http://www.w3.org/2000/svg" width="1440" height="900" viewBox="0 0 1440 900" role="img" aria-label="Issue 499 acceptance state Live ready">
  <metadata id="provenance">{"classification":"synthetic","source":"deterministic-generator","generator":"docs/screenshots/issue-499/generate-stills.ts","sourceRevision":"3a5c11045eeb9b7731343f7509c5161c7339c59f","sourceCaptureSha256":"2eafe805f6ad62a9dbca57e5c4822a8807db98cefa5ba9f041c39514232ac18e"}</metadata>
  <rect x="0" y="0" width="1440" height="900" fill="#f3f4f6"/>
  <text x="16" y="26" font-family="ui-sans-serif, system-ui, sans-serif" font-size="16" font-weight="600" fill="#1f2937">Issue 499 — Live ready</text>
  <text x="16" y="44" font-family="ui-monospace, monospace" font-size="11" font-weight="500" fill="#8c95a3">1440×900 · synthetic fixture · rev 3a5c11045eeb</text>
  <rect x="358" y="562" width="724" height="324" fill="#dee2e9" rx="12"/>
  <rect x="360" y="564" width="720" height="320" fill="#ffffff" rx="10"/>
  <text x="376" y="588" font-family="ui-sans-serif, system-ui, sans-serif" font-size="12" font-weight="500" fill="#8c95a3">…transcript…</text>
  <rect x="360" y="752" width="720" height="2" fill="#dee2e9"/>
  <rect x="374" y="766" width="692" height="48" fill="#dee2e9" rx="10"/>
  <rect x="376" y="768" width="688" height="44" fill="#eef1f5" rx="9"/>
  <text x="390" y="795" font-family="ui-sans-serif, system-ui, sans-serif" font-size="12" font-weight="500" fill="#8c95a3">message the agent…</text>
  <rect x="1012" y="774" width="32" height="32" fill="#6d5ef6" rx="8"/>
  <path d="M 1023 782 L 1035 790 L 1023 798 Z" fill="#ffffff"/>
  <rect x="990" y="782" width="10" height="16" fill="#8c95a3" rx="5"/>
  <rect x="966" y="784" width="14" height="3" fill="#8c95a3"/>
  <rect x="966" y="792" width="14" height="3" fill="#8c95a3"/>
  <path d="M 384 826 L 378 836 L 383 836 L 377 846 L 389 833 L 384 833 L 388 826 Z" fill="#6d5ef6"/>
  <text x="398" y="840" font-family="ui-sans-serif, system-ui, sans-serif" font-size="13" font-weight="700" fill="#1f2937">5.6-Sol · High ⌄</text>
  <text x="376" y="874" font-family="ui-monospace, monospace" font-size="10" font-weight="500" fill="#8c95a3">synthetic · rev 3a5c11045eeb</text>
</svg>
