<svg xmlns="http://www.w3.org/2000/svg" width="390" height="844" viewBox="0 0 390 844" role="img" aria-label="Issue 499 acceptance state Unresolved host — recovery (en)">
  <metadata id="provenance">{"classification":"synthetic","source":"deterministic-generator","generator":"docs/screenshots/issue-499/generate-stills.ts","sourceRevision":"a13d5c277bae65fbe09704d50f00b59819660685","capture":"blocked-390-en-light","sourceCaptureSha256":"18dee490ce0d223bc479635ba259a850f0417722f04406a4827d873d16a2ac21","viewport":{"width":390,"height":844},"capabilities":{"surface":"unresolved","send":"disabled:strip.resolving","runtime":"hidden","images":"hidden"}}</metadata>
  <rect x="0" y="0" width="390" height="844" fill="#f3f4f6"/>
  <text x="16" y="26" font-family="ui-sans-serif, system-ui, sans-serif" font-size="16" font-weight="600" fill="#1f2937">Issue 499 — Unresolved host — recovery</text>
  <text x="16" y="44" font-family="ui-monospace, monospace" font-size="11" font-weight="500" fill="#8c95a3">390×844 · synthetic fixture · rev a13d5c277bae</text>
  <rect x="10" y="643" width="370" height="187" fill="#dee2e9" rx="12"/>
  <rect x="12" y="645" width="366" height="183" fill="#ffffff" rx="10"/>
  <text x="28" y="669" font-family="ui-sans-serif, system-ui, sans-serif" font-size="12" font-weight="500" fill="#8c95a3">…transcript…</text>
  <rect x="26" y="685" width="338" height="48" fill="#dee2e9" rx="10"/>
  <rect x="28" y="687" width="334" height="44" fill="#eef1f5" rx="9"/>
  <text x="42" y="714" font-family="ui-sans-serif, system-ui, sans-serif" font-size="12" font-weight="500" fill="#8c95a3">message the agent — reconnecting to its session…</text>
  <rect x="310" y="693" width="32" height="32" fill="#c7c1fa" rx="8"/>
  <path d="M 321 701 L 333 709 L 321 717 Z" fill="#ffffff"/>
  <rect x="288" y="701" width="10" height="16" fill="#8c95a3" rx="5"/>
  <rect x="264" y="703" width="14" height="3" fill="#8c95a3"/>
  <rect x="264" y="711" width="14" height="3" fill="#8c95a3"/>
  <text x="28" y="749" font-family="ui-sans-serif, system-ui, sans-serif" font-size="12" font-weight="700" fill="#b0760e">resolving the agent host…</text>
  <rect x="28" y="759" width="77" height="30" fill="#ffffff" rx="8" stroke="#dee2e9" stroke-width="2"/>
  <text x="40" y="779" font-family="ui-sans-serif, system-ui, sans-serif" font-size="12" font-weight="600" fill="#1f2937">Re-check</text>
  <text x="28" y="818" font-family="ui-monospace, monospace" font-size="10" font-weight="500" fill="#8c95a3">synthetic · rev a13d5c277bae</text>
</svg>
