<svg xmlns="http://www.w3.org/2000/svg" width="390" height="844" viewBox="0 0 390 844" role="img" aria-label="Issue 499 acceptance state Unresolved host — recovery">
  <metadata id="provenance">{"classification":"synthetic","source":"deterministic-generator","generator":"docs/screenshots/issue-499/generate-stills.ts","sourceRevision":"3a5c11045eeb9b7731343f7509c5161c7339c59f","sourceCaptureSha256":"18dee490ce0d223bc479635ba259a850f0417722f04406a4827d873d16a2ac21"}</metadata>
  <rect x="0" y="0" width="390" height="844" fill="#f3f4f6"/>
  <text x="16" y="26" font-family="ui-sans-serif, system-ui, sans-serif" font-size="16" font-weight="600" fill="#1f2937">Issue 499 — Unresolved host — recovery</text>
  <text x="16" y="44" font-family="ui-monospace, monospace" font-size="11" font-weight="500" fill="#8c95a3">390×844 · synthetic fixture · rev 3a5c11045eeb</text>
  <rect x="10" y="506" width="370" height="324" fill="#dee2e9" rx="12"/>
  <rect x="12" y="508" width="366" height="320" fill="#ffffff" rx="10"/>
  <text x="28" y="532" font-family="ui-sans-serif, system-ui, sans-serif" font-size="12" font-weight="500" fill="#8c95a3">…transcript…</text>
  <rect x="12" y="656" width="366" height="2" fill="#dee2e9"/>
  <rect x="26" y="670" width="338" height="48" fill="#dee2e9" rx="10"/>
  <rect x="28" y="672" width="334" height="44" fill="#eef1f5" rx="9"/>
  <text x="42" y="699" font-family="ui-sans-serif, system-ui, sans-serif" font-size="12" font-weight="500" fill="#8c95a3">message the agent — reconnecting to its session…</text>
  <rect x="310" y="678" width="32" height="32" fill="#c7c1fa" rx="8"/>
  <path d="M 321 686 L 333 694 L 321 702 Z" fill="#ffffff"/>
  <rect x="288" y="686" width="10" height="16" fill="#8c95a3" rx="5"/>
  <rect x="264" y="688" width="14" height="3" fill="#8c95a3"/>
  <rect x="264" y="696" width="14" height="3" fill="#8c95a3"/>
  <text x="28" y="740" font-family="ui-sans-serif, system-ui, sans-serif" font-size="12" font-weight="700" fill="#b0760e">resolving the agent host…</text>
  <rect x="28" y="750" width="92" height="30" fill="#ffffff" rx="8" stroke="#dee2e9" stroke-width="2"/>
  <text x="42" y="770" font-family="ui-sans-serif, system-ui, sans-serif" font-size="12" font-weight="600" fill="#1f2937">Re-check</text>
  <text x="28" y="818" font-family="ui-monospace, monospace" font-size="10" font-weight="500" fill="#8c95a3">synthetic · rev 3a5c11045eeb</text>
</svg>
