<svg xmlns="http://www.w3.org/2000/svg" width="390" height="600" viewBox="0 0 390 600" role="img" aria-label="Issue 499 acceptance state Live ready (en)">
  <metadata id="provenance">{"classification":"synthetic","source":"deterministic-generator","generator":"docs/screenshots/issue-499/generate-stills.ts","sourceRevision":"3adc6127801d060ae8c886754a477d6770206bc8","capture":"rest-390x600-en-light","sourceCaptureSha256":"2d2b4057310ed8e1d27f5209373aea60ab4db43233435e21da7313db753f5cff","viewport":{"width":390,"height":600},"capabilities":{"surface":"structured","send":"enabled","runtime":"enabled","images":"enabled"}}</metadata>
  <rect x="0" y="0" width="390" height="600" fill="#f3f4f6"/>
  <text x="16" y="26" font-family="ui-sans-serif, system-ui, sans-serif" font-size="16" font-weight="600" fill="#1f2937">Issue 499 — Live ready</text>
  <text x="16" y="44" font-family="ui-monospace, monospace" font-size="11" font-weight="500" fill="#8c95a3">390×600 · synthetic fixture · rev 3adc6127801d</text>
  <rect x="10" y="414" width="370" height="172" fill="#dee2e9" rx="12"/>
  <rect x="12" y="416" width="366" height="168" fill="#ffffff" rx="10"/>
  <text x="28" y="440" font-family="ui-sans-serif, system-ui, sans-serif" font-size="12" font-weight="500" fill="#8c95a3">…transcript…</text>
  <rect x="26" y="456" width="338" height="48" fill="#dee2e9" rx="10"/>
  <rect x="28" y="458" width="334" height="44" fill="#eef1f5" rx="9"/>
  <text x="42" y="485" font-family="ui-sans-serif, system-ui, sans-serif" font-size="12" font-weight="500" fill="#8c95a3">message the agent…</text>
  <rect x="310" y="464" width="32" height="32" fill="#6d5ef6" rx="8"/>
  <path d="M 321 472 L 333 480 L 321 488 Z" fill="#ffffff"/>
  <rect x="288" y="472" width="10" height="16" fill="#8c95a3" rx="5"/>
  <rect x="264" y="474" width="14" height="3" fill="#8c95a3"/>
  <rect x="264" y="482" width="14" height="3" fill="#8c95a3"/>
  <path d="M 36 518 L 30 528 L 35 528 L 29 538 L 41 525 L 36 525 L 40 518 Z" fill="#6d5ef6"/>
  <text x="50" y="532" font-family="ui-sans-serif, system-ui, sans-serif" font-size="13" font-weight="700" fill="#1f2937">5.6-Sol · High ⌄</text>
  <text x="28" y="574" font-family="ui-monospace, monospace" font-size="10" font-weight="500" fill="#8c95a3">synthetic · rev 3adc6127801d</text>
</svg>
