<svg xmlns="http://www.w3.org/2000/svg" width="390" height="844" viewBox="0 0 390 844" role="img" aria-label="Issue 499 acceptance state Live ready">
  <metadata id="provenance">{"classification":"synthetic","source":"deterministic-generator","generator":"docs/screenshots/issue-499/generate-stills.ts","sourceRevision":"3a5c11045eeb9b7731343f7509c5161c7339c59f","sourceCaptureSha256":"4086a25e9b4903fed9298d6510cee6bfca8f13ec48772186f0d1aa1701860894"}</metadata>
  <rect x="0" y="0" width="390" height="844" fill="#f3f4f6"/>
  <text x="16" y="26" font-family="ui-sans-serif, system-ui, sans-serif" font-size="16" font-weight="600" fill="#1f2937">Issue 499 — Live ready</text>
  <text x="16" y="44" font-family="ui-monospace, monospace" font-size="11" font-weight="500" fill="#8c95a3">390×844 · synthetic fixture · rev 3a5c11045eeb</text>
  <rect x="10" y="506" width="370" height="324" fill="#dee2e9" rx="12"/>
  <rect x="12" y="508" width="366" height="320" fill="#ffffff" rx="10"/>
  <text x="28" y="532" font-family="ui-sans-serif, system-ui, sans-serif" font-size="12" font-weight="500" fill="#8c95a3">…transcript…</text>
  <rect x="12" y="696" width="366" height="2" fill="#dee2e9"/>
  <rect x="26" y="710" width="338" height="48" fill="#dee2e9" rx="10"/>
  <rect x="28" y="712" width="334" height="44" fill="#eef1f5" rx="9"/>
  <text x="42" y="739" font-family="ui-sans-serif, system-ui, sans-serif" font-size="12" font-weight="500" fill="#8c95a3">message the agent…</text>
  <rect x="310" y="718" width="32" height="32" fill="#6d5ef6" rx="8"/>
  <path d="M 321 726 L 333 734 L 321 742 Z" fill="#ffffff"/>
  <rect x="288" y="726" width="10" height="16" fill="#8c95a3" rx="5"/>
  <rect x="264" y="728" width="14" height="3" fill="#8c95a3"/>
  <rect x="264" y="736" width="14" height="3" fill="#8c95a3"/>
  <path d="M 36 770 L 30 780 L 35 780 L 29 790 L 41 777 L 36 777 L 40 770 Z" fill="#6d5ef6"/>
  <text x="50" y="784" font-family="ui-sans-serif, system-ui, sans-serif" font-size="13" font-weight="700" fill="#1f2937">5.6-Sol · High ⌄</text>
  <text x="28" y="818" font-family="ui-monospace, monospace" font-size="10" font-weight="500" fill="#8c95a3">synthetic · rev 3a5c11045eeb</text>
</svg>
